<svg width="635" height="101" viewBox="0 0 635 101" fill="none" xmlns="http://www.w3.org/2000/svg">
<path d="M42.3429 0.0657881C50.0252 0.0657881 56.5365 0.908978 61.8767 2.59536C67.2169 4.18805 71.4797 6.90499 74.6651 10.7462C77.9442 14.4937 80.3332 19.6465 81.8322 26.2047C83.3312 32.6691 84.0807 40.7731 84.0807 50.5166C84.0807 60.2601 83.3312 68.411 81.8322 74.9691C80.3332 81.4336 77.9442 86.5864 74.6651 90.4276C71.4797 94.1751 67.2169 96.892 61.8767 98.5784C56.5365 100.171 50.0252 100.967 42.3429 100.967C34.6605 100.967 28.1492 100.171 22.809 98.5784C17.4688 96.892 13.1591 94.1751 9.88006 90.4276C6.601 86.5864 4.21196 81.4336 2.71296 74.9691C1.21395 68.411 0.464451 60.2601 0.464451 50.5166C0.464451 40.7731 1.21395 32.6691 2.71296 26.2047C4.21196 19.6465 6.601 14.4937 9.88006 10.7462C13.1591 6.90499 17.4688 4.18805 22.809 2.59536C28.1492 0.908978 34.6605 0.0657881 42.3429 0.0657881ZM42.3429 17.0701C37.3774 17.0701 33.4894 18.0538 30.6787 20.0213C27.9618 21.9887 25.9943 25.4083 24.7764 30.2801C23.6522 35.0581 23.09 41.8037 23.09 50.5166C23.09 59.1359 23.6522 65.8814 24.7764 70.7532C25.9943 75.6249 27.9618 79.0445 30.6787 81.012C33.4894 82.9794 37.3774 83.9631 42.3429 83.9631C47.2146 83.9631 51.009 82.9794 53.7259 81.012C56.5365 79.0445 58.504 75.6249 59.6282 70.7532C60.8462 65.8814 61.4551 59.1359 61.4551 50.5166C61.4551 41.8037 60.8462 35.0581 59.6282 30.2801C58.504 25.4083 56.5365 21.9887 53.7259 20.0213C51.009 18.0538 47.2146 17.0701 42.3429 17.0701ZM182.52 2.03323V91.2708C182.52 96.4236 179.943 99 174.791 99H162.986C160.644 99 158.864 98.4847 157.646 97.4542C156.428 96.3299 155.303 94.6904 154.273 92.5355L127.431 41.6631C126.307 39.5083 125.183 37.1193 124.059 34.496C123.028 31.8728 122.138 29.3432 121.389 26.9073H119.843C120.124 29.4369 120.358 32.0133 120.545 34.6365C120.733 37.1661 120.826 39.6957 120.826 42.2253V99H100.449V9.76247C100.449 4.60964 103.073 2.03323 108.319 2.03323H119.983C122.232 2.03323 123.918 2.59536 125.042 3.71961C126.26 4.75017 127.431 6.34286 128.556 8.49768L154.554 57.8243C155.678 59.9791 156.849 62.3681 158.067 64.9914C159.285 67.6146 160.456 70.3316 161.581 73.1422H163.267C162.986 70.3316 162.752 67.6146 162.564 64.9914C162.471 62.2744 162.424 59.6043 162.424 56.9811L162.283 2.03323H182.52Z" fill="white"/>
<path d="M277.052 0.627915C287.452 0.627915 295.79 2.12692 302.067 5.12493C308.438 8.12293 312.747 13.3226 314.996 20.7239C317.338 28.1253 317.572 38.3841 315.699 51.5003C314.293 61.3375 312.42 69.4884 310.077 75.9528C307.829 82.3236 304.831 87.289 301.083 90.8492C297.43 94.3156 292.792 96.7983 287.171 98.2973C281.549 99.7027 274.71 100.405 266.653 100.405C258.971 100.405 251.757 100.265 245.011 99.9837C238.359 99.7027 231.942 99.3748 225.758 99L238.406 80.0282C241.685 80.3093 245.901 80.5435 251.054 80.7309C256.301 80.8246 261.407 80.8714 266.372 80.8714C269.464 80.8714 272.181 80.4967 274.523 79.7472C276.865 78.904 278.879 77.3581 280.566 75.1096C282.252 72.8611 283.704 69.6758 284.922 65.5535C286.14 61.4312 287.171 56.091 288.014 49.5329C288.857 43.5369 289.326 38.6183 289.419 34.7771C289.513 30.9359 289.138 27.9379 288.295 25.7831C287.452 23.6282 286.046 22.1761 284.079 21.4266C282.112 20.5834 279.488 20.1618 276.209 20.1618C273.024 20.1618 269.839 20.1618 266.653 20.1618C263.561 20.1618 260.563 20.1618 257.659 20.1618C254.755 20.1618 252.038 20.1618 249.508 20.1618L239.39 2.03323C242.95 1.75217 246.791 1.51795 250.914 1.33057C255.036 1.04951 259.299 0.862137 263.702 0.768445C268.199 0.674759 272.649 0.627915 277.052 0.627915ZM265.669 2.03323L252.038 99H225.758L239.39 2.03323H265.669ZM394.192 2.03323C396.253 2.03323 398.08 2.73589 399.673 4.14121C401.359 5.54652 402.343 7.27975 402.624 9.34088L416.396 99H389.976L382.95 31.8259C382.762 30.0459 382.622 28.3126 382.528 26.6263C382.528 24.9399 382.528 23.2535 382.528 21.5671H378.593C378.218 22.9724 377.797 24.5651 377.328 26.3452C376.86 28.1253 376.251 29.8585 375.501 31.5449L348.941 99H321.537L360.605 8.35715C361.355 6.29602 362.526 4.75017 364.118 3.71961C365.805 2.59536 367.725 2.03323 369.88 2.03323H394.192ZM400.094 56.7L397.846 76.2339H347.255L349.644 56.7H400.094ZM487.511 0.0657881C492.757 0.15948 498.285 0.534232 504.093 1.19004C509.996 1.84586 515.57 3.01696 520.817 4.70334L518.568 21.7077C515.664 21.614 512.385 21.5671 508.731 21.5671C505.077 21.4734 501.329 21.4266 497.488 21.4266C493.647 21.3329 489.806 21.2861 485.965 21.2861C483.997 21.2861 482.264 21.3797 480.765 21.5671C479.36 21.6608 478.142 21.9419 477.111 22.4103C476.174 22.7851 475.425 23.394 474.863 24.2372C474.301 25.0804 473.879 26.2047 473.598 27.61C473.504 28.8279 473.598 29.9053 473.879 30.8422C474.16 31.7791 474.816 32.6223 475.846 33.3718C476.971 34.1213 478.563 35.0113 480.624 36.0419L497.488 43.6306C502.735 45.9728 506.67 48.5023 509.293 51.2193C512.01 53.9362 513.743 57.0748 514.493 60.6349C515.336 64.195 515.476 68.3641 514.914 73.1422C513.977 80.4498 512.104 86.1179 509.293 90.1465C506.576 94.1751 502.501 96.9857 497.067 98.5784C491.633 100.171 484.419 100.967 475.425 100.967C471.584 100.967 466.431 100.64 459.966 99.9837C453.502 99.4216 446.663 98.2505 439.449 96.4704L441.978 78.0608C447.412 78.1545 452.284 78.295 456.594 78.4824C460.997 78.5761 464.698 78.6698 467.696 78.7635C470.694 78.7635 472.848 78.7635 474.16 78.7635C477.626 78.7635 480.343 78.5761 482.311 78.2013C484.372 77.8266 485.871 77.1708 486.808 76.2339C487.838 75.2033 488.494 73.8449 488.775 72.1585C489.056 70.6595 489.056 69.4884 488.775 68.6452C488.494 67.802 487.885 67.0525 486.948 66.3967C486.012 65.7409 484.7 65.0382 483.014 64.2887L464.885 55.9973C459.732 53.4678 455.797 50.7508 453.08 47.8465C450.457 44.9422 448.771 41.7568 448.021 38.2904C447.272 34.7302 447.131 30.889 447.6 26.7668C448.255 21.4266 449.52 17.0233 451.394 13.5568C453.361 10.0904 455.938 7.42028 459.123 5.54652C462.402 3.57908 466.384 2.17376 471.068 1.33057C475.846 0.487383 481.327 0.0657881 487.511 0.0657881ZM579.53 2.03323L565.899 99H539.479L553.11 2.03323H579.53ZM604.123 37.8688L601.313 57.1216H570.817L573.347 37.8688H604.123ZM634.056 2.03323L620.425 99H594.005L607.636 2.03323H634.056Z" fill="#8CB8FA"/>
</svg>
