<svg width="363" height="59" viewBox="0 0 363 59" fill="none" xmlns="http://www.w3.org/2000/svg">
<path d="M24.5936 0.529352C28.9786 0.529352 32.6952 1.01064 35.7434 1.9732C38.7915 2.8823 41.2246 4.4331 43.0428 6.62562C44.9145 8.76466 46.2781 11.7058 47.1337 15.4492C47.9894 19.139 48.4172 23.7647 48.4172 29.3262C48.4172 34.8877 47.9894 39.5401 47.1337 43.2834C46.2781 46.9733 44.9145 49.9144 43.0428 52.1069C41.2246 54.246 38.7915 55.7968 35.7434 56.7594C32.6952 57.6684 28.9786 58.123 24.5936 58.123C20.2086 58.123 16.492 57.6684 13.4439 56.7594C10.3957 55.7968 7.93584 54.246 6.06418 52.1069C4.19252 49.9144 2.82888 46.9733 1.97327 43.2834C1.11765 39.5401 0.689843 34.8877 0.689843 29.3262C0.689843 23.7647 1.11765 19.139 1.97327 15.4492C2.82888 11.7058 4.19252 8.76466 6.06418 6.62562C7.93584 4.4331 10.3957 2.8823 13.4439 1.9732C16.492 1.01064 20.2086 0.529352 24.5936 0.529352ZM24.5936 10.2352C21.7594 10.2352 19.5401 10.7967 17.9358 11.9197C16.385 13.0427 15.2621 14.9946 14.5669 17.7754C13.9252 20.5026 13.6043 24.3529 13.6043 29.3262C13.6043 34.246 13.9252 38.0962 14.5669 40.877C15.2621 43.6577 16.385 45.6096 17.9358 46.7326C19.5401 47.8556 21.7594 48.4171 24.5936 48.4171C27.3744 48.4171 29.5401 47.8556 31.0909 46.7326C32.6952 45.6096 33.8182 43.6577 34.4599 40.877C35.1551 38.0962 35.5027 34.246 35.5027 29.3262C35.5027 24.3529 35.1551 20.5026 34.4599 17.7754C33.8182 14.9946 32.6952 13.0427 31.0909 11.9197C29.5401 10.7967 27.3744 10.2352 24.5936 10.2352ZM104.605 1.65235V52.5882C104.605 55.5294 103.135 57 100.193 57H93.4554C92.1185 57 91.1025 56.7059 90.4073 56.1176C89.7121 55.4759 89.0704 54.5401 88.4822 53.3102L73.1613 24.2727C72.5196 23.0427 71.8779 21.6791 71.2362 20.1818C70.6479 18.6845 70.1399 17.2406 69.7121 15.8502H68.8297C68.9902 17.2941 69.1239 18.7647 69.2308 20.262C69.3378 21.7058 69.3912 23.1497 69.3912 24.5936V57H57.7602V6.06412C57.7602 3.12294 59.2575 1.65235 62.2522 1.65235H68.91C70.1934 1.65235 71.1559 1.9732 71.7977 2.61492C72.4928 3.20315 73.1613 4.11224 73.803 5.34219L88.6426 33.4973C89.2843 34.7273 89.9528 36.0909 90.6479 37.5882C91.3431 39.0855 92.0116 40.6363 92.6533 42.2406H93.6159C93.4554 40.6363 93.3217 39.0855 93.2148 37.5882C93.1613 36.0374 93.1346 34.5133 93.1346 33.016L93.0544 1.65235H104.605ZM158.563 0.850209C164.499 0.850209 169.259 1.70582 172.842 3.41706C176.478 5.12829 178.938 8.09621 180.221 12.3208C181.558 16.5454 181.692 22.401 180.622 29.8877C179.82 35.5027 178.751 40.1551 177.414 43.8449C176.13 47.4813 174.419 50.3155 172.28 52.3476C170.195 54.3262 167.547 55.7433 164.339 56.5989C161.13 57.4011 157.227 57.8021 152.628 57.8021C148.243 57.8021 144.125 57.7219 140.275 57.5615C136.478 57.4011 132.815 57.2139 129.285 57L136.505 46.1711C138.376 46.3315 140.783 46.4652 143.724 46.5722C146.719 46.6257 149.633 46.6524 152.467 46.6524C154.232 46.6524 155.783 46.4385 157.12 46.0107C158.457 45.5294 159.606 44.647 160.569 43.3636C161.531 42.0802 162.36 40.262 163.055 37.9091C163.751 35.5561 164.339 32.508 164.82 28.7647C165.301 25.3422 165.569 22.5347 165.622 20.3422C165.676 18.1497 165.462 16.4385 164.981 15.2085C164.499 13.9786 163.697 13.1497 162.574 12.7219C161.451 12.2406 159.954 12 158.082 12C156.264 12 154.446 12 152.628 12C150.863 12 149.152 12 147.494 12C145.836 12 144.285 12 142.842 12L137.066 1.65235C139.098 1.49192 141.291 1.35823 143.644 1.25128C145.997 1.09085 148.43 0.9839 150.943 0.930422C153.51 0.876947 156.05 0.850209 158.563 0.850209ZM152.066 1.65235L144.285 57H129.285L137.066 1.65235H152.066ZM225.426 1.65235C226.602 1.65235 227.645 2.05342 228.554 2.85556C229.517 3.6577 230.078 4.64701 230.238 5.82348L238.099 57H223.019L219.008 18.6577C218.902 17.6417 218.821 16.6524 218.768 15.6898C218.768 14.7272 218.768 13.7647 218.768 12.8021H216.522C216.308 13.6042 216.067 14.5133 215.8 15.5294C215.533 16.5454 215.185 17.5347 214.757 18.4973L199.597 57H183.955L206.254 5.26198C206.682 4.08551 207.351 3.20315 208.26 2.61492C209.222 1.9732 210.319 1.65235 211.549 1.65235H225.426ZM228.795 32.8556L227.511 44.0053H198.634L199.998 32.8556H228.795ZM278.691 0.529352C281.685 0.582831 284.841 0.796735 288.156 1.17107C291.525 1.5454 294.707 2.21385 297.702 3.17642L296.418 12.8823C294.76 12.8288 292.889 12.8021 290.803 12.8021C288.718 12.7486 286.579 12.7219 284.386 12.7219C282.194 12.6684 280.001 12.6417 277.808 12.6417C276.685 12.6417 275.696 12.6951 274.841 12.8021C274.038 12.8556 273.343 13.016 272.755 13.2834C272.22 13.4973 271.792 13.8449 271.472 14.3262C271.151 14.8074 270.91 15.4492 270.75 16.2513C270.696 16.9465 270.75 17.5615 270.91 18.0962C271.071 18.631 271.445 19.1123 272.033 19.5401C272.675 19.9679 273.584 20.4759 274.76 21.0641L284.386 25.3957C287.381 26.7326 289.627 28.1764 291.124 29.7272C292.675 31.278 293.664 33.0695 294.092 35.1016C294.573 37.1337 294.653 39.5134 294.333 42.2406C293.798 46.4118 292.728 49.6471 291.124 51.9465C289.573 54.246 287.247 55.8503 284.145 56.7594C281.044 57.6684 276.926 58.123 271.792 58.123C269.6 58.123 266.659 57.9358 262.969 57.5615C259.279 57.2406 255.375 56.5722 251.258 55.5561L252.701 45.0481C255.803 45.1016 258.584 45.1818 261.044 45.2888C263.557 45.3422 265.669 45.3957 267.381 45.4492C269.092 45.4492 270.322 45.4492 271.071 45.4492C273.049 45.4492 274.6 45.3422 275.723 45.1283C276.899 44.9144 277.755 44.5401 278.29 44.0053C278.878 43.4171 279.252 42.6417 279.413 41.6791C279.573 40.8235 279.573 40.1551 279.413 39.6738C279.252 39.1925 278.905 38.7647 278.37 38.3904C277.835 38.016 277.087 37.615 276.124 37.1871L265.776 32.4545C262.835 31.0107 260.589 29.4599 259.038 27.8021C257.541 26.1444 256.579 24.3262 256.151 22.3476C255.723 20.3155 255.643 18.123 255.91 15.77C256.284 12.7219 257.006 10.2085 258.076 8.2299C259.199 6.25128 260.669 4.72722 262.488 3.6577C264.359 2.5347 266.632 1.73256 269.306 1.25128C272.033 0.769994 275.161 0.529352 278.691 0.529352ZM331.215 1.65235L323.434 57H308.354L316.134 1.65235H331.215ZM345.252 22.1069L343.648 33.0962H326.241L327.685 22.1069H345.252ZM362.338 1.65235L354.557 57H339.477L347.257 1.65235H362.338Z" fill="white"/>
</svg>
